<?xml version="1.0" encoding="UTF-8"?>
<svg xmlns="http://www.w3.org/2000/svg" id="Calque_2" width="3710" height="3710" viewBox="0 0 3710 3710">
  <defs>
    <style>.cls-1,.cls-2{fill:none;}.cls-3{fill:#ffd83c;}.cls-3,.cls-4,.cls-5,.cls-6,.cls-7,.cls-8,.cls-9,.cls-10,.cls-11,.cls-12,.cls-13,.cls-14,.cls-15,.cls-2{stroke:#468cf7;stroke-width:4px;}.cls-3,.cls-4,.cls-5,.cls-6,.cls-11,.cls-12,.cls-13,.cls-14,.cls-15,.cls-2{stroke-miterlimit:10;}.cls-4{fill:#fff;}.cls-5{fill:#ff60c3;}.cls-6{fill:#e49963;}.cls-7{stroke-miterlimit:10;}.cls-7,.cls-8,.cls-15{fill:#f3f9ff;}.cls-8{stroke-miterlimit:10;}.cls-9{stroke-miterlimit:10;}.cls-9,.cls-10{fill:#4a75cb;}.cls-10{stroke-miterlimit:10;}.cls-11{fill:#d68d5d;}.cls-12{fill:#a6c7f9;}.cls-13{fill:#80f4dc;}.cls-14{fill:#468cf7;}</style>
  </defs>
  <g id="Calque_1-2">
    <g>
      <g id="Calque_2-2">
        <g id="Calque_1-2">
          <rect class="cls-4" x="2440.26" y="1027.37" width="917.84" height="1542.1"></rect>
          <rect class="cls-4" x="2411.45" y="1027.31" width="917.84" height="1542.1"></rect>
          <rect class="cls-4" x="2473.94" y="1113.47" width="794.98" height="537.15"></rect>
          <rect class="cls-2" x="2828.59" y="2154.66" width="426.69" height="286.8"></rect>
          <path class="cls-2" d="m2506.73,1387.64s135.76-16.92,218.68,59.47c82.92,76.39,237.46,6.79,299.69,0,108.17-11.78,193,23.66,218.15,62.55v116.71h-736.51v-238.73Z"></path>
          <rect class="cls-12" x="2611.93" y="1199.84" width="5.68" height="182.23"></rect>
          <rect class="cls-12" x="2835.17" y="1278.04" width="5.68" height="182.23"></rect>
          <rect class="cls-12" x="3065.52" y="1236.76" width="5.68" height="182.23"></rect>
          <path class="cls-12" d="m2681.16,1227.8h-43.61c-2.62-.03-4.72-2.16-4.72-4.77h0c0-2.61,2.11-4.72,4.72-4.72h43.61c2.61,0,4.72,2.11,4.72,4.72h0c0,2.62-2.11,4.75-4.72,4.77Z"></path>
          <path class="cls-12" d="m2681.16,1244.83h-43.61c-2.61,0-4.72-2.11-4.72-4.72h0c0-2.61,2.11-4.72,4.72-4.72h43.61c2.61,0,4.72,2.11,4.72,4.72h0c0,2.61-2.11,4.72-4.72,4.72h0Z"></path>
          <path class="cls-12" d="m2901.01,1320.8h-43.61c-2.62-.03-4.72-2.16-4.72-4.77h0c0-2.61,2.11-4.72,4.72-4.72h43.61c2.61,0,4.72,2.11,4.72,4.72h0c0,2.62-2.11,4.75-4.72,4.77Z"></path>
          <path class="cls-12" d="m2901.01,1337.4h-43.61c-2.62-.03-4.72-2.16-4.72-4.77h0c0-2.61,2.11-4.72,4.72-4.72h43.61c2.61,0,4.72,2.11,4.72,4.72h0c0,2.62-2.11,4.75-4.72,4.77Z"></path>
          <path class="cls-12" d="m3135.18,1251.83h-43.61c-2.61,0-4.72-2.11-4.72-4.72h0c0-2.61,2.11-4.72,4.72-4.72h43.61c2.61,0,4.72,2.11,4.72,4.72h0c0,2.61-2.11,4.72-4.72,4.72h0Z"></path>
          <path class="cls-12" d="m3135.18,1268.65h-43.61c-2.61,0-4.72-2.11-4.72-4.72h0c0-2.61,2.11-4.72,4.72-4.72h43.61c2.61,0,4.72,2.11,4.72,4.72h0c0,2.61-2.11,4.72-4.72,4.72h0Z"></path>
          <path class="cls-15" d="m3111.99,1788.02c0-43.36,35.15-78.52,78.52-78.52,43.36,0,78.52,35.15,78.52,78.52s-35.15,78.52-78.52,78.52h-.05c-43.34-.03-78.46-35.17-78.46-78.52Z"></path>
          <path class="cls-5" d="m3262.29,1788.02c.06,39.67-32.06,71.88-71.73,71.94-18.01.03-35.37-6.71-48.65-18.88l48.54-53.05v-71.83c39.67,0,71.83,32.16,71.83,71.83Z"></path>
          <path class="cls-12" d="m3163.08,1775.34h-25.78c-1.18,0-2.15-.94-2.17-2.12h0c0-1.2.97-2.18,2.17-2.18h25.78c1.2,0,2.17.97,2.17,2.18h0c0,1.17-.95,2.12-2.12,2.12-.02,0-.04,0-.05,0Z"></path>
          <circle class="cls-15" cx="2995.6" cy="1788.02" r="78.52" transform="translate(-386.93 2641.91) rotate(-45)"></circle>
          <path class="cls-14" d="m2995.6,1788.02l44.14,56.66c-31.29,24.39-76.43,18.79-100.81-12.5-24.39-31.29-18.79-76.43,12.5-100.81,31.29-24.39,76.43-18.79,100.81,12.5,8.45,10.84,13.61,23.89,14.87,37.58l-71.51,6.58Z"></path>
          <path class="cls-12" d="m3050.88,1805.79h-17.93c-1.19-.03-2.15-.99-2.18-2.18h0c.03-1.19.99-2.15,2.18-2.18h17.93c1.2,0,2.18.97,2.18,2.18h0c0,1.2-.97,2.18-2.18,2.18h0Z"></path>
          <path class="cls-15" d="m3111.99,2004.21c0-43.36,35.15-78.52,78.52-78.52,43.36,0,78.52,35.15,78.52,78.52s-35.15,78.52-78.52,78.52h-.05c-43.33,0-78.46-35.13-78.46-78.46v-.05Z"></path>
          <path class="cls-3" d="m3262.29,2004.21c.06,39.67-32.06,71.88-71.73,71.94-18.01.03-35.37-6.71-48.65-18.88l48.54-53.05v-71.83c39.67,0,71.83,32.16,71.83,71.83Z"></path>
          <path class="cls-12" d="m3163.08,1991.58h-25.78c-1.19-.03-2.15-.99-2.17-2.18h0c0-1.2.97-2.18,2.17-2.18h25.78c1.2,0,2.17.97,2.17,2.18h0c0,1.2-.97,2.18-2.17,2.18Z"></path>
          <path class="cls-15" d="m2916.92,2004.21c0-43.36,35.15-78.52,78.52-78.52s78.52,35.15,78.52,78.52-35.15,78.52-78.52,78.52h0c-43.33.03-78.49-35.08-78.52-78.41v-.11Z"></path>
          <path class="cls-5" d="m3067.11,1997.63c-3.69-39.44-38.65-68.42-78.09-64.74-39.44,3.69-68.42,38.65-64.74,78.09,3.69,39.44,38.65,68.42,78.09,64.74,13.61-1.27,26.57-6.41,37.36-14.8l-44.14-56.71,71.51-6.58Z"></path>
          <path class="cls-12" d="m3050.88,2021.98h-17.93c-1.2,0-2.18-.97-2.18-2.18h0c.03-1.18.99-2.12,2.18-2.12h17.93c1.17-.03,2.15.9,2.17,2.07,0,.02,0,.04,0,.05h0c0,1.2-.97,2.18-2.18,2.18h0Z"></path>
          <polygon class="cls-12" points="3236.88 2421.4 2845.25 2421.4 2845.25 2190.04 2850.08 2190.04 2850.08 2416.57 3236.88 2416.57 3236.88 2421.4"></polygon>
          <path class="cls-4" d="m2967.64,2337.74c-47.75-38.14-98.89,0-98.89,0v65.31h358.42v-168.7c-97.4,2.44-211.57,141.54-259.53,103.4Z"></path>
          <path class="cls-12" d="m2872.84,2207.66h167.01c2.26,0,4.08-1.83,4.08-4.08s-1.83-4.09-4.08-4.09h-167.01c-2.26,0-4.08,1.83-4.08,4.09s1.83,4.08,4.08,4.08Z"></path>
          <path class="cls-12" d="m2872.84,2227.98h167.01c2.27-.26,3.9-2.31,3.64-4.58-.22-1.91-1.73-3.43-3.64-3.64h-167.01c-2.27.26-3.9,2.31-3.64,4.58.22,1.91,1.73,3.43,3.64,3.64Z"></path>
          <rect class="cls-12" x="2868.75" y="2238.43" width="117.3" height="8.22" rx="3.34" ry="3.34"></rect>
          <rect class="cls-4" x="1003.78" y="787.63" width="1255.84" height="1893.94"></rect>
          <rect class="cls-2" x="1125.11" y="1435.81" width="1011.11" height="1126.97"></rect>
          <rect class="cls-4" x="1215.14" y="1838.58" width="106.69" height="664.63"></rect>
          <rect class="cls-4" x="1389.94" y="1653.32" width="106.69" height="849.89"></rect>
          <rect class="cls-4" x="1580.66" y="1999.32" width="106.69" height="503.94"></rect>
          <rect class="cls-4" x="1766.24" y="1766.8" width="106.69" height="736.46"></rect>
          <rect class="cls-4" x="1952.82" y="2097.95" width="106.69" height="405.26"></rect>
          <path class="cls-12" d="m1867.88,1670.94h-90.19c-5.16,0-9.34,4.18-9.34,9.34s4.18,9.34,9.34,9.34h90.19c5.16,0,9.34-4.18,9.34-9.34s-4.18-9.34-9.34-9.34Z"></path>
          <path class="cls-12" d="m1798.12,1704.99h-20.58c-5.17.39-9.05,4.9-8.66,10.07.35,4.63,4.03,8.31,8.66,8.66h20.58c5.17-.39,9.05-4.9,8.66-10.07-.35-4.63-4.03-8.31-8.66-8.66Z"></path>
          <path class="cls-12" d="m1495.57,1526.26h-90.19c-5.16,0-9.34,4.18-9.34,9.34s4.18,9.34,9.34,9.34h90.19c5.16,0,9.34-4.18,9.34-9.34s-4.18-9.34-9.34-9.34Z"></path>
          <path class="cls-12" d="m1425.75,1560.27h-20.53c-5.17,0-9.36,4.17-9.39,9.34h0c.03,5.17,4.22,9.34,9.39,9.34h20.53c5.17,0,9.36-4.17,9.39-9.34h0c-.03-5.17-4.22-9.34-9.39-9.34Z"></path>
          <path class="cls-12" d="m1679.18,1900.12h-90.19c-5.17.39-9.05,4.9-8.66,10.07.35,4.63,4.03,8.31,8.66,8.66h90.19c5.17-.39,9.05-4.9,8.66-10.07-.35-4.63-4.03-8.31-8.66-8.66Z"></path>
          <path class="cls-12" d="m1609.42,1934.12h-20.58c-5.17.03-9.34,4.22-9.34,9.39h0c.03,5.14,4.19,9.31,9.34,9.34h20.58c5.14-.03,9.31-4.19,9.34-9.34h0c0-5.17-4.17-9.36-9.34-9.39Z"></path>
          <path class="cls-12" d="m2051.34,1999.32h-90.19c-5.16,0-9.34,4.18-9.34,9.34s4.18,9.34,9.34,9.34h90.19c5.16,0,9.34-4.18,9.34-9.34s-4.18-9.34-9.34-9.34Z"></path>
          <path class="cls-12" d="m1981.57,2033.33h-20.58c-5.17.39-9.05,4.9-8.66,10.07.35,4.63,4.03,8.31,8.66,8.66h20.58c5.17-.39,9.05-4.9,8.66-10.07-.35-4.63-4.03-8.31-8.66-8.66Z"></path>
          <circle class="cls-8" cx="1320.02" cy="1079.1" r="181.86"></circle>
          <path class="cls-5" d="m1473.92,1079.15c.14-84.97-68.62-153.96-153.59-154.11s-153.96,68.62-154.11,153.59c-.14,84.97,68.62,153.96,153.59,154.11,33.83.06,66.74-11.04,93.63-31.57l-93.37-122.02,143.66,54.86c6.71-17.51,10.16-36.1,10.19-54.86Z"></path>
          <circle class="cls-7" cx="1939.57" cy="1079.11" r="181.86"></circle>
          <path class="cls-3" d="m1939.66,925.46c-84.97.18-153.71,69.2-153.53,154.17.08,40.16,15.87,78.7,43.98,107.38l109.55-107.85,143.61,54.86c30.21-79.42-9.68-168.29-89.1-198.49-17.41-6.62-35.88-10.03-54.51-10.05Z"></path>
          <path class="cls-2" d="m1917.17,1001.11h-65.41c-2.58,0-4.67,2.09-4.67,4.67,0,.02,0,.04,0,.05h0c0,2.58,2.09,4.67,4.67,4.67h65.41c2.58,0,4.67-2.09,4.67-4.67h0c.03-2.58-2.04-4.69-4.62-4.72-.02,0-.04,0-.05,0Z"></path>
          <path class="cls-2" d="m1917.17,1015.91h-65.41c-2.59.28-4.47,2.6-4.2,5.19.24,2.21,1.98,3.96,4.2,4.2h65.41c2.59-.28,4.47-2.6,4.2-5.19-.24-2.21-1.98-3.96-4.2-4.2Z"></path>
          <path class="cls-2" d="m1878.76,1030.71h-27c-2.59.28-4.47,2.6-4.2,5.19.24,2.21,1.98,3.96,4.2,4.2h27c2.59-.28,4.47-2.6,4.2-5.19-.24-2.21-1.98-3.96-4.2-4.2Z"></path>
          <path class="cls-2" d="m1296.36,1001.11h-65.41c-2.58,0-4.67,2.09-4.67,4.67,0,.02,0,.04,0,.05h0c0,2.58,2.09,4.67,4.67,4.67h65.41c2.58,0,4.67-2.09,4.67-4.67h0c.03-2.58-2.04-4.69-4.62-4.72-.02,0-.04,0-.05,0Z"></path>
          <path class="cls-2" d="m1296.36,1015.91h-65.41c-2.59.28-4.47,2.6-4.2,5.19.24,2.21,1.98,3.96,4.2,4.2h65.41c2.59-.28,4.47-2.6,4.2-5.19-.24-2.21-1.98-3.96-4.2-4.2Z"></path>
          <path class="cls-2" d="m1257.95,1030.71h-27c-2.59.28-4.47,2.6-4.2,5.19.24,2.21,1.98,3.96,4.2,4.2h27c2.59-.28,4.47-2.6,4.2-5.19-.24-2.21-1.98-3.96-4.2-4.2Z"></path>
          <path class="cls-4" d="m2309.27,2218.43s-40.9,10.61-66.9,2.71c-26-7.9-70.77,4.99-77.99,14.48s-4.56,13.26,8.33,16.55c12.89,3.29,58.36,22.71,88.38,11.46,30.03-11.25,68.97-11.67,68.97-11.67l-20.8-33.53Z"></path>
          <path class="cls-13" d="m2662.86,1863.04s-45.94,326.64-122.02,355.92c-37.56,14.43-203.51,47.16-252.58,50.45,0,0-12.04-9.76-9.07-49.5,0,0,173.85-63.66,198.52-98.52,36.76-51.67-22.81-211.09,23.34-259.58,46.15-48.49,123.77-69.39,161.81,1.22Z"></path>
          <path class="cls-4" d="m2656.97,3121.63v-71.35h112.15c2.93,0,5.31-2.38,5.31-5.31v-11.41c0-2.93-2.38-5.31-5.31-5.31h-112.15v-405.69c-.03-11.41-9.28-20.66-20.69-20.69h-22.18c-11.4.06-20.63,9.29-20.69,20.69v405.42h-112.1c-2.93,0-5.31,2.38-5.31,5.31v11.67c0,2.93,2.38,5.31,5.31,5.31h111.99v71.25c-81.12,6.1-146.1,35.33-164.46,73.05h392.58c-18.3-37.61-83.34-66.84-164.46-72.95Z"></path>
          <path class="cls-3" d="m2275.42,3116.91s-4.77,76.98-19.63,78.09h-75.55l-93.95-.53s.64-22.65,28.06-27.43c27.43-4.77,73.42-24.03,90.19-60.32,17.4-38.09,70.88,10.19,70.88,10.19Z"></path>
          <path class="cls-4" d="m2647.37,2551.22c-13.5,22.33-28.49,43.73-44.88,64.03-49.39,62.34-103.19,113.74-112.52,162.34-2.15,10.58-5.06,20.98-8.7,31.14-3.93,11.09-8.75,22.81-14.32,34.91-20.96,45.52-52.31,96.55-83.61,142.92-54.11,80.16-104.99,147.06-104.99,147.06l-93.26-3.77c3.71-9.34,44.4-120,98.84-255.28,22.12-54.91,45.62-113.32,68.28-169.76l9.07-22.44c6.9-17.24,13.74-34.22,20.37-50.72l91.83-228.12s204.3-77.4,225.52-27.27c17.51,41.43,3.24,81.91-51.62,174.96Z"></path>
          <path class="cls-3" d="m2491.45,2896.96s64.72,41.91,58.62,55.23c-.85,1.8-36.71,66.05-36.71,66.05l-46.26,81.7s-19.42-11.57-10.24-37.88c9.18-26.31,14.75-75.81-8.81-108.01-24.51-33.85,43.4-57.08,43.4-57.08Z"></path>
          <path class="cls-4" d="m2403.65,2366.87s-256.4,159.69-285.05,267.06c-28.65,107.38,341.12,336.29,341.12,336.29,0,0,40.53-35.76,47.75-62.02,0,0-167.11-200.22-203.35-245.1-22.28-27.53,328.92-95.49,372.1-162.18,43.18-66.69,27.59-123.03,27.59-123.03l-300.17-11.03Z"></path>
          <rect class="cls-4" x="2343.7" y="2571.96" width="562.98" height="143.13" rx="19.1" ry="19.1"></rect>
          <path class="cls-6" d="m2511.77,1743.09v-.32l47-42.07,28.17-25.25c.21,10.68,1.31,21.33,3.29,31.83.42,2.28,1.01,4.46,1.54,6.63-17.29,25.04-56.82,29.07-80,29.18Z"></path>
          <path class="cls-6" d="m2646.36,1801.5s-14.96,8.38-37.14,17.77c-24.83,10.61-58.36,22.65-89.34,25.41-12.41,1.41-24.98.65-37.14-2.23,10.72-14.08,23.94-26.08,38.99-35.39-.32-1.33-.53-2.65-.85-3.93h0c22.92,4.38,46.65,1.24,67.64-8.97,18.3-8.65,27.48-15.54,32.68-16.98,7.19,9.25,15.66,17.43,25.15,24.3Z"></path>
          <path class="cls-13" d="m2711.24,2096.83c-8.86,118.41,5.99,298.31-4.03,329.45-.65,1.93-1.78,3.67-3.29,5.04,0,0,0,.32-.32.42-20.37,19.05-109.45,4.83-145.52-3.5-14.54-3.24-32.15-7.96-50.29-13.63-11.14-3.4-22.6-7.21-33.63-11.25-31.51-11.3-59.9-24.19-72.15-35.54-2.54-2.1-4.53-4.8-5.78-7.85,0-.69-.48-1.33-.58-1.86-.53-2.3-.53-4.7,0-7,1.96-8.44,9.55-17.61,10.61-38.62,0-4.88.32-9.92.42-15.17.37-14.43.48-30.08.8-46.69,0-6.1,0-12.36.42-18.67,0-3.4,0-7,.53-10.61v-7.32c.48-16.18,1.11-32.79,2.02-49.6.9-16.82,1.59-32.26,2.49-48.44,1.33-21.65,2.71-43.08,4.46-63.66,4.4-53.05,10.29-100.16,18.14-129.98,12.94-48.54,41.33-80.27,67.16-103.45l18.57-15.92h0c22.92,4.38,46.65,1.24,67.64-8.97,18.3-8.65,27.48-15.54,32.68-16.98,1.33-.56,2.86-.44,4.08.32,55.86,43.13,95.97,174.75,85.57,319.48Z"></path>
          <path class="cls-4" d="m2621.8,1777.04c-5.31,1.43-14.38,8.33-32.68,16.98-20.99,10.2-44.72,13.35-67.64,8.97h0c-1.01-4.51-1.86-8.86-2.65-12.94-3.19-15.56-5.51-31.29-6.95-47.11,23.4,0,62.71-4.14,80-28.97.13.79.3,1.57.53,2.33,5.39,22.1,15.41,42.8,29.39,60.74Z"></path>
          <path class="cls-11" d="m2595.06,1708.44h0c0,.69-1.01,3.5-2.76,7.9-.23-.77-.4-1.55-.53-2.33-17.29,24.83-56.61,28.86-80,28.97v-.32l47-42.07,31.46,6.79,4.83,1.06Z"></path>
          <path class="cls-4" d="m2599.94,1690.83c0,1.33-.32,2.65-.53,3.87-.68,4.79-2.15,9.43-4.35,13.74h0c-.98,1.84-2.08,3.61-3.29,5.31-17.29,24.83-56.61,28.86-80,28.97-6.18.1-12.36-.15-18.51-.74-26.1-4.62-27.22-111.41-20.11-131.73,1.52-4.6,3.59-9,6.15-13.1,9.6-15.54,29.5-28.01,79.9-20.11,64.03,10.19,46.9,51.09,40.74,113.8Z"></path>
          <path class="cls-4" d="m2599.57,1695.18s-6.37-83.34-98.04-91.99c-62.76-5.89-27.75-59.9-21.22-68.54,0,0,48.06,6.63,97.4,14.75,103.61,17.08,31.99,132.84,21.86,145.79Z"></path>
          <rect class="cls-10" x="2065.76" y="2065.08" width="9.28" height="242.6" transform="translate(-574.3 746.8) rotate(-18)"></rect>
          <rect class="cls-9" x="2103.17" y="2285.35" width="254.59" height="15.23" transform="translate(-48.31 48.01) rotate(-1.22)"></rect>
          <path class="cls-4" d="m2330.33,2268.67s-39.42,14.96-65.94,10.03c-26.53-4.93-70.03,12.94-76.18,23.02-6.15,10.08-3.08,13.69,10.08,15.49s60.58,15.92,89.13,1.64c28.54-14.27,67.16-19.2,67.16-19.2l-24.24-30.98Z"></path>
          <path class="cls-13" d="m2642.38,1882.45c-.8,18.73-3.5,78.41-11.25,144.3h0c-10.93,92.26-31.83,196.66-70.61,216.77-17.83,9.28-67.06,26.53-117.77,42.44-12.1,3.93-24.24,7.64-36.07,11.14l-1.59.42c-37.61,11.25-71.83,20.58-90.19,23.82-3.45-2.88-6.02-6.66-7.43-10.93-1.72-3.77-3.02-7.72-3.87-11.78-1.19-5.01-1.98-10.1-2.39-15.23-.29-2.2-.47-4.41-.53-6.63v-3.5l13.53-6.9c19.26-9.92,55.97-29.28,90.98-50.19,1.06-.64,2.28-1.43,3.45-2.07h0c11.94-7.11,23.66-14.54,34.22-21.64,21.54-14.75,38.52-28.54,44.3-38.89,10.61-18.62,8.54-48.12,3.18-81.01-6.15-37.14-16.87-78.94-19.89-114.49"></path>
          <path class="cls-4" d="m408.75,3167.94h-.74c-4.37-.03-7.88-3.59-7.85-7.96,0-.04,0-.07,0-.11l11.88-515.4,35.01-4.08-29.87,519.53c-.28,4.47-3.96,7.96-8.44,8.01Z"></path>
          <path class="cls-4" d="m972,3167.94h.74c4.37-.03,7.88-3.59,7.85-7.96,0-.04,0-.07,0-.11l-11.94-515.4-35.01-4.08,29.87,519.53c.28,4.49,3.99,7.99,8.49,8.01Z"></path>
          <path class="cls-4" d="m458.94,2252.91c-2.92-2.92,11.14-26.53,29.02-54.91.37,1.64.64,3.29.95,4.99,3.98,19.92,6.51,40.09,7.59,60.37-20.48-4.56-35.39-8.28-37.56-10.45Z"></path>
          <path class="cls-4" d="m865,2259.38v366.48l-186.69-5.31-39.52-1.17-56.61-1.59-196.61-5.31v-264.41c29.39,10.61,74.27,13.37,117.99,12.57,38.52-.8,76.13-4.08,101.49-6.84l12.31-1.38,3.98-.58,15.23-1.91s.85-4.24,1.64-10.61c.83-7.6.83-15.27,0-22.87-.33-3.63-1.15-7.2-2.44-10.61,19.05-3.98,64.62-12.57,73.48-7.69,10.12,6.2,19.65,13.3,28.49,21.22l42.92-99.52v-1.54s0,.48.32.8l25.57-58.52c36.06,19.78,58.48,57.65,58.46,98.78Z"></path>
          <path class="cls-4" d="m994.44,2637.59v5.78c.03,13.74-11.09,24.9-24.83,24.93H419.36c-18.63.03-33.76-15.05-33.79-33.69,0-.04,0-.07,0-.11v-21.96h583.94c13.77,0,24.93,11.16,24.93,24.93,0,.04,0,.07,0,.11Z"></path>
          <path class="cls-4" d="m955.08,2524.53c-36.5,63.66-82.34,87.96-82.34,87.96h-190.99s301.12-136.34,273.32-87.96Z"></path>
          <path class="cls-4" d="m808.55,3015.42c-4.66,5.16-5.87,12.57-3.08,18.94h0c4.56,12.57,19.58,26.53,37.14,40.64l5.94,4.93,1.33,1.22,1.06.9c16.23,15.01,10.13,18.46,39.36,48.91,33.37,34.7,56.34,35.33,62.87,32.15,5.31-2.71-5.73-21.22-18.14-41.75-.64-1.01-1.22-2.02-1.8-3.02-1.7-2.76-3.34-5.57-4.99-8.33-14.54-24.88-10.61-36.55-7.37-73.58,2.81-30.13,46.84-168.23,46.84-168.23l-63.66-10.98s-19.2,109.92-40.43,126.9c-11.35,9.02-24.03,9.12-34.91,15.92l-2.28,1.43c-6.57,3.81-12.59,8.5-17.88,13.95Z"></path>
          <path class="cls-4" d="m808.55,3015.42c-4.66,5.16-5.87,12.57-3.08,18.94h0c5.31,12.57,20.21,26.53,37.14,40.48,2.23,1.86,4.14,3.55,5.89,5.31l1.33,1.22,1.06.9c16.23,15.01,10.13,18.46,39.36,48.91,33.37,34.7,56.34,35.33,62.87,32.15,5.31-2.71-5.73-21.22-18.14-41.75-23.34-9.11-43.85-24.23-59.47-43.82-20.05-25.62-33.48-58.36-47.11-77.61l-2.28,1.43c-6.45,3.8-12.36,8.46-17.56,13.85Z"></path>
          <path class="cls-4" d="m1323.89,2975.47c3.93,19.74,31.83,16.45,63.66,8.81,31.83-7.64,23.98,1.43,68.7-3.5,44.72-4.93,58.36-21.64,59.63-28.28s-20.9-8.01-44.62-10.61l-8.97-1.06c-26.53-3.4-46.31-20.64-70.61-34.8-23.02-13.42-57.4-68.17-57.4-68.17l-61.33,4.88s32.2,48.86,44.62,70.08c7.32,12.52,6.95,29.07,6.05,41.8-.86,6.93-.77,13.94.27,20.85Z"></path>
          <path class="cls-4" d="m1387.34,2984.28c31.46-7.69,23.98,1.43,68.7-3.5,44.72-4.93,58.36-21.64,59.63-28.28,1.27-6.63-20.9-8.01-44.62-10.61v.42c-19.15,12.32-41.28,19.21-64.03,19.95-30.35.74-62.44-7.96-83.4-7.64-.8,6.97-.64,14.02.48,20.96,3.71,19.63,31.83,16.34,63.24,8.7Z"></path>
          <path class="cls-13" d="m1088.87,2583.42l-57.3,154.22-74.86,201.6c-13.36.99-26.79-.24-39.74-3.66-13.56-4.6-26.48-10.89-38.46-18.73,0,0,20.8-216.24,59.52-340.38,9.97-31.83,21.22-57.61,33.37-72.15,60.11-71.14,117.46,79.1,117.46,79.1Z"></path>
          <path class="cls-4" d="m797.57,1981.87h0c-11.51-42.44-107.75-59.42-111.83-60h0s-7.9,48.6-105.2-9.18h0c-4.03.32-95.49,6.84-127.32,51.51-19.58,27.32-47.43,92.73-68.97,161.6-29.28,92.79-46.79,192.36-16.61,213.27,5.56,3.78,11.58,6.81,17.93,9.02,29.39,10.61,74.27,13.37,117.99,12.57,38.52-.8,76.13-4.08,101.49-6.84l12.31-1.38,3.98-.58,15.23-1.91s.85-4.24,1.64-10.61c.83-7.6.83-15.27,0-22.87-.33-3.63-1.15-7.2-2.44-10.61,19.05-3.98,64.62-12.57,73.48-7.69,10.12,6.2,19.65,13.3,28.49,21.22l42.92-99.52v-1.54s0,.48.32.8l25.57-58.52,20.16-46.42h7.11c-16.02-58.25-31.25-114.01-36.23-132.31Zm-338.63,271.04c-2.92-2.92,11.14-26.53,29.02-54.91.37,1.64.64,3.29.95,4.99,3.98,19.92,6.51,40.09,7.59,60.37l-4.03-.9c-18.3-4.14-31.51-7.53-33.53-9.55Z"></path>
          <path class="cls-13" d="m1369.57,2871.65c-2.04,2.34-4.38,4.41-6.95,6.15-4.49,3.02-9.34,5.48-14.43,7.32-11.14,4.19-34.32,4.99-44.67,5.31h-5.31s-177.4-152.05-238.73-227.75c-6.93-8.17-12.96-17.07-17.98-26.53-27.32-57.35-38.25-111.99-65.57-106.53-8.66,3.1-17.05,6.9-25.09,11.35-2.71,1.27-5.62,2.76-8.75,4.19h0c-19.89,9.55-46.42,22.33-77.08,34.06-45.36,17.77-99.15,33.26-150.3,33.26h-186.64c-20.9-.27-33.21-10.61-39.36-26.53-27.22-70.29-4.46-166.48,14.85-225.42,38.52-.8,76.13-4.08,101.49-6.84l12.31-1.38,3.98-.58,15.23-1.91s.85-4.24,1.64-10.61c.83-7.6.83-15.27,0-22.87l97.56,7.64,7.53.58,12.31.95,7.43,12.36,8.49,13.95,6.68,11.14c20.21-3.98,40.43-7.69,60.16-11.14,8.97-1.54,17.83-3.02,26.53-4.35,74.27-12.04,138.36-17.88,165.57-9.07,7.86,3.08,15.06,7.64,21.22,13.42,5.82,5,11.37,10.31,16.61,15.92l.27.37c15.3,17.08,29.57,35.04,42.76,53.79,107.96,150.88,258.25,449.72,258.25,449.72Z"></path>
          <path class="cls-4" d="m749.34,1751.47c-2.89-5.97-6.45-11.6-10.61-16.76-25.94,19.1-67.69,46.31-99.68,49.55-10.69,1.2-21.48,1.32-32.2.37-1.01,7.75-1.96,15.92-3.24,24.14-10.61,71.51,104.41,86.9,104.41,86.9,16.71,1.27,33.58-34.01,44.99-70.13.62-1.74,1.13-3.51,1.54-5.31,4.08-18.62,1.54-53.32-5.2-68.75Z"></path>
          <path class="cls-14" d="m746.74,1649.08c-29.76-15.6-75.17-17.72-82.5-18.73-88.01-11.78-141.06,116.13-144.19,154.86-5.68,71.41-43.5,82.39-96.55,127.16-91.94,77.3-81.49,165.41-39.42,213.11,21.54-68.97,49.39-134.27,68.97-161.59,32.1-44.67,123.34-51.19,127.32-51.51h0c97.3,57.77,105.2,9.18,105.2,9.18h0c4.08.58,100.32,17.72,111.83,60,64.46-75.12,14.11-298.41-50.66-332.47Zm-38.57,246.58s-114.91-15.38-104.3-86.79c1.27-8.33,2.23-16.39,3.24-24.14,10.72.95,21.51.83,32.2-.37,31.83-3.24,73.74-30.45,99.68-49.55,4.16,5.17,7.72,10.79,10.61,16.76,6.74,15.44,9.28,50.13,5.31,68.7-.41,1.8-.92,3.57-1.54,5.31-11.57,36.34-28.49,71.35-45.2,70.08Z"></path>
          <path class="cls-4" d="m695.71,1868.98s-2.28,9.81-4.88,23.29c-1.8,8.81-3.61,19.15-5.31,29.39,0,0-7.9,48.6-105.2-9.18h0c9.28-5.84,18.57-23.98,26.15-75.55h0l4.88,1.75,84.35,30.29Z"></path>
          <path class="cls-4" d="m754.7,1820.17c-.41,1.8-.92,3.57-1.54,5.31-11.35,36.45-28.28,71.46-44.99,70.19,0,0-115.12-15.38-104.41-86.9,1.27-8.33,2.23-16.39,3.24-24.14,10.72.95,21.51.83,32.2-.37,31.83-3.24,73.74-30.45,99.68-49.55,4.16,5.17,7.72,10.79,10.61,16.76,6.58,15.44,9.12,50.13,5.2,68.7Z"></path>
          <path class="cls-4" d="m780.86,2220.12c-1.91,119.26-3.13,109.82-17.83,117.77-2.71,1.48-5.23,3.26-7.53,5.31-4.77,4.08-15.92,6.9-31.51,8.7h-.58c-4.4.53-9.07,1.01-14.06,1.27-30.69,1.61-61.44,1.38-92.1-.69l3.98-.58,15.23-1.91s.85-4.24,1.64-10.61c.83-7.6.83-15.27,0-22.87-.33-3.63-1.15-7.2-2.44-10.61,19.05-3.98,64.62-12.57,73.48-7.69,10.12,6.2,19.65,13.3,28.49,21.22l43.24-99.31Z"></path>
          <path class="cls-4" d="m878.52,2278.38c-4.48.75-8.99,1.24-13.53,1.49-16.87,1.06-45.09,0-60.9-15.92-5.94-5.94-14.06-22.81-22.92-44.67l25.36-58.67,20.16-46.42h7.11c21.65,79.68,44.72,164.19,44.72,164.19Z"></path>
          <path class="cls-4" d="m732.58,2332.28c-5.94-2.33-11.83-4.72-15.12-5.57-6.05-1.64-22.07,3.87-29.97,6.53-15.78,5.65-32.6,7.75-49.28,6.15.83-7.6.83-15.27,0-22.87-.33-3.63-1.15-7.2-2.44-10.61,19.05-3.98,64.62-12.57,73.48-7.69,10.12,6.2,19.65,13.3,28.49,21.22,1.96,1.75,3.93,3.55,5.31,5.31,3.69,2.94,6.86,6.47,9.39,10.45,2.02,5.04-9.23,1.06-19.84-2.92Z"></path>
          <polygon class="cls-4" points="1188.35 2114.18 1079.38 2368.35 716.93 2368.35 717.14 2367.98 724.09 2351.85 724.09 2351.75 732.58 2332.28 735.98 2324.27 737.94 2319.65 780.86 2220.12 781.18 2219.38 806.53 2160.6 826.53 2114.18 1188.35 2114.18"></polygon>
          <path class="cls-4" d="m1083.68,2351.85l-4.3,15.92h-474.33v-14.16l12.31-1.38,3.98-.58,462.34.21Z"></path>
          <path class="cls-4" d="m987.92,2241.24c2.38-6.15-.68-13.06-6.83-15.44-1.74-.67-3.62-.93-5.48-.74-10.01.37-18.8,6.77-22.23,16.18-2.38,6.15.68,13.06,6.83,15.44,1.74.67,3.62.93,5.48.74,10.02-.34,18.83-6.75,22.23-16.18Z"></path>
          <path class="cls-4" d="m1615.25,3175h1.01c6.03-.31,10.67-5.44,10.36-11.47,0-.09,0-.17-.02-.26l-15.92-751.95-46.31-5.99,39.47,758c.05,6.32,5.09,11.47,11.41,11.67Z"></path>
          <path class="cls-4" d="m638.84,3175h-1.01c-6.06-.34-10.69-5.52-10.35-11.58,0-.05,0-.1,0-.15l15.92-751.95,46.31-5.99-39.68,758c-.05,6.24-4.96,11.36-11.19,11.67Z"></path>
          <rect class="cls-4" x="561.44" y="2368.35" width="1088.94" height="53.79" rx="16.87" ry="16.87"></rect>
          <path class="cls-4" d="m638.36,2306.97l-179.47-56.66"></path>
        </g>
      </g>
      <rect class="cls-1" width="3710" height="3710"></rect>
    </g>
  </g>
</svg>
